<svg width="28" height="18" fill="none" xmlns="http://www.w3.org/2000/svg"><path fill-rule="evenodd" clip-rule="evenodd" d="M17.892 3.004h7.415V.819h-7.415v2.185ZM26.863 6.759c-.58-.875-1.316-1.517-2.21-1.921-.892-.406-1.895-.61-3.01-.61-1.874 0-3.397.603-4.574 1.8-1.174 1.202-1.762 2.928-1.762 5.178 0 2.399.649 4.133 1.954 5.197 1.3 1.066 2.802 1.597 4.506 1.597 2.063 0 3.668-.631 4.814-1.893.734-.795 1.15-1.578 1.24-2.347h-3.416c-.198.381-.428.678-.69.894-.476.396-1.097.595-1.856.595-.72 0-1.335-.164-1.845-.49-.843-.523-1.284-1.437-1.34-2.738h9.323c.015-1.12-.022-1.983-.112-2.577-.155-1.018-.494-1.913-1.023-2.685Zm-8.107 3.022c.122-.845.42-1.515.892-2.01.473-.494 1.141-.741 1.997-.741.79 0 1.45.232 1.988.698.53.47.83 1.15.89 2.053h-5.767ZM12.846 1.871c.528.747.793 1.639.793 2.68 0 1.07-.264 1.934-.8 2.586-.3.364-.739.698-1.32.999.883.327 1.548.843 2 1.55.448.705.674 1.563.674 2.572 0 1.041-.257 1.975-.772 2.8a4.832 4.832 0 0 1-1.225 1.382c-.552.43-1.202.721-1.954.882-.753.159-1.566.235-2.445.235H0V0h8.362c2.11.032 3.603.655 4.484 1.871ZM3.449 3.049v3.874h4.208c.749 0 1.36-.146 1.83-.436.468-.291.704-.806.704-1.54 0-.82-.31-1.36-.929-1.624-.537-.182-1.218-.274-2.046-.274H3.449Zm0 11.461V9.828h4.26c.741.006 1.32.107 1.73.297.737.342 1.102.969 1.102 1.884 0 1.08-.379 1.808-1.137 2.192-.417.206-1.003.31-1.754.31H3.45Z" fill="#fff"/></svg>