<svg width="26" height="26" fill="none" xmlns="http://www.w3.org/2000/svg"><path d="M13 2.341c3.473 0 3.885.015 5.25.076 1.27.056 1.956.27 2.413.447a4.02 4.02 0 0 1 1.493.97 4 4 0 0 1 .97 1.493c.177.457.39 1.148.447 2.412.06 1.371.076 1.782.076 5.25 0 3.474-.015 3.886-.076 5.252-.056 1.27-.27 1.955-.447 2.412a4.02 4.02 0 0 1-.97 1.493 4 4 0 0 1-1.493.97c-.457.177-1.148.39-2.412.447-1.371.06-1.783.076-5.251.076-3.473 0-3.885-.016-5.25-.076-1.27-.056-1.956-.27-2.413-.447a4.02 4.02 0 0 1-1.493-.97 3.998 3.998 0 0 1-.97-1.493c-.178-.457-.39-1.148-.447-2.412-.06-1.372-.076-1.783-.076-5.251 0-3.474.015-3.885.076-5.25.056-1.27.27-1.956.447-2.413a4.02 4.02 0 0 1 .97-1.493 3.999 3.999 0 0 1 1.493-.97c.457-.178 1.148-.39 2.412-.447 1.366-.06 1.778-.076 5.251-.076ZM13 0C9.47 0 9.029.015 7.643.076 6.26.137 5.312.361 4.489.68a6.345 6.345 0 0 0-2.305 1.504 6.37 6.37 0 0 0-1.504 2.3C.36 5.312.137 6.256.076 7.638.016 9.027 0 9.47 0 13c0 3.53.015 3.971.076 5.357.061 1.382.285 2.331.604 3.154a6.345 6.345 0 0 0 1.504 2.305 6.355 6.355 0 0 0 2.3 1.498c.828.32 1.772.544 3.154.605 1.386.06 1.828.076 5.357.076 3.53 0 3.971-.015 5.357-.076 1.382-.061 2.331-.285 3.154-.605a6.355 6.355 0 0 0 2.3-1.498 6.356 6.356 0 0 0 1.498-2.3c.32-.828.544-1.772.605-3.153.06-1.387.076-1.829.076-5.358 0-3.53-.015-3.971-.076-5.357-.061-1.382-.285-2.331-.605-3.154a6.088 6.088 0 0 0-1.488-2.31 6.355 6.355 0 0 0-2.3-1.498c-.828-.32-1.772-.544-3.153-.605C16.97.015 16.529 0 13 0Z" fill="#fff"/><path d="M13 6.322A6.68 6.68 0 0 0 6.322 13 6.68 6.68 0 0 0 13 19.678 6.68 6.68 0 0 0 19.678 13 6.68 6.68 0 0 0 13 6.322Zm0 11.01a4.332 4.332 0 1 1 .001-8.665A4.332 4.332 0 0 1 13 17.332ZM21.5 6.058a1.56 1.56 0 1 1-3.118 0 1.56 1.56 0 0 1 3.119 0Z" fill="#fff"/></svg>