<svg width="275" height="56" viewBox="0 0 275 56" fill="none" xmlns="http://www.w3.org/2000/svg">
<path d="M17.0898 54H23.2422L38.6367 14.7891H32.2109L20.1523 46.1523L8.12109 14.7891H1.66797L17.0898 54Z" fill="white"/>
<rect x="60.2" y="32.2002" width="151.2" height="4.2" fill="#BFA372"/>
<path d="M238.005 14.7891V54H244.158V40H253.673C257.392 40 260.537 38.7969 263.052 36.3359C265.568 33.9023 266.853 30.9219 266.853 27.4219C266.853 23.9219 265.568 20.9414 263.052 18.4805C260.537 16.0195 257.392 14.8164 253.673 14.8164L238.005 14.7891ZM253.673 20.4219C255.588 20.4219 257.255 21.0781 258.623 22.4453C259.99 23.7852 260.673 25.4531 260.673 27.4219C260.673 29.3906 259.99 31.0586 258.623 32.3984C257.255 33.7383 255.588 34.3945 253.673 34.3945H244.158V20.3945L253.673 20.4219Z" fill="white"/>
<path d="M266.839 50.9375C266.839 49.9531 266.456 49.1055 265.745 48.3672C265.007 47.6562 264.159 47.2734 263.175 47.2734C262.19 47.2734 261.343 47.6562 260.605 48.3672C259.894 49.1055 259.511 49.9531 259.511 50.9375C259.511 51.9219 259.894 52.7695 260.605 53.4805C261.343 54.1914 262.19 54.5469 263.175 54.5469C264.159 54.5469 265.007 54.1914 265.745 53.4805C266.456 52.7695 266.839 51.9219 266.839 50.9375Z" fill="#BFA372"/>
</svg>
