<svg width="456" height="89" viewBox="0 0 456 89" fill="none" xmlns="http://www.w3.org/2000/svg">
<g clip-path="url(#clip0_10_25)">
<rect width="456" height="89" fill="white"/>
<path d="M28.771 87H38.7686L63.7847 23.2822H53.3428L33.7476 74.2476L14.1968 23.2822H3.71045L28.771 87Z" fill="#181717"/>
<rect x="108" y="64" width="243.972" height="7.29197" fill="#BFA372"/>
<path d="M401.109 23.2822V87H411.106V64.25H426.569C432.612 64.25 437.722 62.2949 441.81 58.2959C445.898 54.3413 447.986 49.498 447.986 43.8105C447.986 38.123 445.898 33.2798 441.81 29.2808C437.722 25.2817 432.612 23.3267 426.569 23.3267L401.109 23.2822ZM426.569 32.4355C429.68 32.4355 432.39 33.502 434.612 35.7236C436.833 37.9009 437.944 40.6113 437.944 43.8105C437.944 47.0098 436.833 49.7202 434.612 51.8975C432.39 54.0747 429.68 55.1411 426.569 55.1411H411.106V32.3911L426.569 32.4355Z" fill="#181717"/>
<path d="M447.963 82.0234C447.963 80.4238 447.341 79.0464 446.186 77.8467C444.986 76.6914 443.609 76.0693 442.009 76.0693C440.41 76.0693 439.032 76.6914 437.832 77.8467C436.677 79.0464 436.055 80.4238 436.055 82.0234C436.055 83.623 436.677 85.0005 437.832 86.1558C439.032 87.311 440.41 87.8887 442.009 87.8887C443.609 87.8887 444.986 87.311 446.186 86.1558C447.341 85.0005 447.963 83.623 447.963 82.0234Z" fill="#BFA372"/>
</g>
<defs>
<clipPath id="clip0_10_25">
<rect width="456" height="89" fill="white"/>
</clipPath>
</defs>
</svg>
