<svg width="456" height="89" fill="none" xmlns="http://www.w3.org/2000/svg"><g clip-path="url(#a)"><path fill="#fff" d="M0 0h456v89H0z"/><path d="M28.771 87h9.998l25.016-63.718H53.343L33.748 74.248 14.197 23.282H3.71L28.771 87Z" fill="#181717"/><path fill="#BFA372" d="M108 64h243.972v7.292H108z"/><path d="M401.109 23.282V87h9.997V64.25h15.463c6.043 0 11.153-1.955 15.241-5.954 4.088-3.955 6.176-8.798 6.176-14.486 0-5.687-2.088-10.53-6.176-14.53-4.088-3.998-9.198-5.953-15.241-5.953l-25.46-.045Zm25.46 9.153c3.111 0 5.821 1.067 8.043 3.289 2.221 2.177 3.332 4.887 3.332 8.087 0 3.199-1.111 5.91-3.332 8.087-2.222 2.177-4.932 3.243-8.043 3.243h-15.463v-22.75l15.463.044Z" fill="#181717"/><path d="M447.963 82.023c0-1.6-.622-2.977-1.777-4.176-1.2-1.156-2.577-1.778-4.177-1.778-1.599 0-2.977.622-4.177 1.778-1.155 1.2-1.777 2.577-1.777 4.176 0 1.6.622 2.978 1.777 4.133 1.2 1.155 2.578 1.733 4.177 1.733 1.6 0 2.977-.578 4.177-1.733 1.155-1.156 1.777-2.533 1.777-4.133Z" fill="#BFA372"/></g><defs><clipPath id="a"><path fill="#fff" d="M0 0h456v89H0z"/></clipPath></defs></svg>