<svg width="275" height="56" fill="none" xmlns="http://www.w3.org/2000/svg"><path d="M17.09 54h6.152l15.395-39.21H32.21L20.152 46.151 8.122 14.79H1.667L17.09 54Z" fill="#fff"/><path fill="#BFA372" d="M60.2 32.2h151.2v4.2H60.2z"/><path d="M238.005 14.79V54h6.153V40h9.515c3.719 0 6.864-1.203 9.379-3.664 2.516-2.434 3.801-5.414 3.801-8.914s-1.285-6.48-3.801-8.942c-2.515-2.46-5.66-3.664-9.379-3.664l-15.668-.027Zm15.668 5.632c1.915 0 3.582.656 4.95 2.023 1.367 1.34 2.05 3.008 2.05 4.977 0 1.969-.683 3.637-2.05 4.976-1.368 1.34-3.035 1.996-4.95 1.996h-9.515v-14l9.515.028Z" fill="#fff"/><path d="M266.839 50.938c0-.985-.383-1.833-1.094-2.57-.738-.712-1.586-1.095-2.57-1.095-.985 0-1.832.383-2.57 1.094-.711.739-1.094 1.586-1.094 2.57 0 .985.383 1.833 1.094 2.544.738.71 1.585 1.066 2.57 1.066.984 0 1.832-.356 2.57-1.066.711-.712 1.094-1.56 1.094-2.544Z" fill="#BFA372"/></svg>