<svg width="28" height="18" viewBox="0 0 28 18" fill="none" xmlns="http://www.w3.org/2000/svg">
<path fill-rule="evenodd" clip-rule="evenodd" d="M17.8919 3.00363H25.3068V0.818564H17.8919V3.00363Z" fill="white"/>
<path fill-rule="evenodd" clip-rule="evenodd" d="M26.8625 6.75896C26.283 5.8836 25.5471 5.24211 24.6532 4.83784C23.7609 4.4319 22.7583 4.2281 21.6437 4.2281C19.7686 4.2281 18.2458 4.83116 17.0687 6.02893C15.8949 7.23005 15.3072 8.95571 15.3072 11.2059C15.3072 13.6048 15.9558 15.3388 17.2613 16.403C18.5602 17.4688 20.0633 18 21.7672 18C23.83 18 25.4352 17.3685 26.581 16.1073C27.3152 15.3121 27.7301 14.5286 27.8206 13.7602H24.4046C24.207 14.1411 23.9765 14.4384 23.7148 14.6539C23.239 15.0498 22.6184 15.2486 21.8594 15.2486C21.1383 15.2486 20.5243 15.0849 20.0139 14.7592C19.171 14.2363 18.7298 13.3225 18.6738 12.0211H27.9968C28.0116 10.9002 27.9754 10.0382 27.8848 9.44351C27.7301 8.42615 27.3909 7.53075 26.8625 6.75896ZM18.7562 9.78099C18.8781 8.9357 19.176 8.26581 19.6485 7.77133C20.121 7.27685 20.7894 7.02961 21.6455 7.02961C22.4357 7.02961 23.0959 7.26182 23.6325 7.7279C24.1627 8.19732 24.4623 8.8789 24.5232 9.78099H18.7562Z" fill="white"/>
<path fill-rule="evenodd" clip-rule="evenodd" d="M12.846 1.871C13.3745 2.61773 13.6395 3.5098 13.6395 4.55054C13.6395 5.62136 13.3745 6.48502 12.8394 7.13653C12.5398 7.50071 12.1002 7.83482 11.5191 8.13551C12.4015 8.46294 13.0666 8.97913 13.5193 9.68577C13.9671 10.3907 14.1927 11.2494 14.1927 12.2584C14.1927 13.2991 13.9358 14.233 13.4206 15.0582C13.0946 15.6045 12.6863 16.0656 12.1957 16.4398C11.6442 16.8691 10.9939 17.1614 10.2416 17.3218C9.48922 17.4805 8.67595 17.5573 7.79683 17.5573H0V0H8.36151C10.4721 0.0317402 11.9652 0.65485 12.846 1.871ZM3.44895 3.04871V6.92269H7.65687C8.40593 6.92269 9.0167 6.77735 9.48754 6.48668C9.95509 6.196 10.1905 5.68148 10.1905 4.94644C10.1905 4.12621 9.88101 3.58662 9.262 3.32268C8.72531 3.14059 8.04375 3.04871 7.21566 3.04871H3.44895ZM3.44895 14.5102V9.82773H7.70955C8.45038 9.83441 9.02823 9.93464 9.4398 10.1251C10.1757 10.4675 10.5412 11.094 10.5412 12.0094C10.5412 13.0886 10.1625 13.817 9.40358 14.2012C8.98707 14.4067 8.40099 14.5102 7.65028 14.5102H3.44895Z" fill="white"/>
</svg>
